<?xml version="1.0" encoding="UTF-8" standalone="no"?>

<svg xmlns="http://www.w3.org/2000/svg" width="30" height="30" viewBox="0 0 30 30">
  <defs>
    <style>
      .icon-path {
        fill: #000000;
      }
      
      @media (prefers-color-scheme: dark) {
        .icon-path {
          fill: #FFFFFF;
        }
      }
    </style>
  </defs>

  <g id="layer1" transform="translate(0, -289.0625)">
    <path
      class="icon-path"
      d="M 15,3 A 12,12 0 0 0 3,15 12,12 0 0 0 15,27 12,12 0 0 0 27,15 12,12 0 0 0 15,3 Z m 1.800781,6 1.478516,0.6914062 -0.472656,0.9804688 6.048828,3.734375 v 1.380859 L 19.126953,18.720703 18.267578,17.412109 22.193359,15.097656 17.115234,12.126953 12.835938,21 11.345703,20.320312 11.830078,19.314453 6.1445312,15.787109 v -1.36914 l 4.7402348,-2.945313 0.847656,1.320313 -3.9394532,2.304687 4.7285152,2.775391 z"
      transform="translate(0, 289.0625)"
    />
  </g>
</svg>